<svg viewBox="0 0 96 56" fill="none" xmlns="http://www.w3.org/2000/svg" role="img" aria-label="TermIQ mark">
  <path d="M 0.00 28.52 L 1.50 28.51 L 3.00 28.54 L 4.50 28.62 L 6.00 28.75 L 7.50 28.93 L 9.00 29.18 L 10.50 29.48 L 12.00 29.83 L 13.50 30.22 L 15.00 30.63 L 16.50 31.04 L 18.00 31.40 L 19.50 31.70 L 21.00 31.88 L 22.50 31.93 L 24.00 31.81 L 25.50 31.50 L 27.00 30.97 L 28.50 30.24 L 30.00 29.30 L 31.50 28.19 L 33.00 26.94 L 34.50 25.61 L 36.00 24.26 L 37.50 22.96 L 39.00 21.78 L 40.50 20.79 L 42.00 20.05 L 43.50 19.61 L 45.00 19.50 L 46.50 19.73 L 48.00 20.30 L 49.50 21.18 L 51.00 22.32 L 52.50 23.65 L 54.00 25.12 L 55.50 26.62 L 57.00 28.09 L 58.50 29.45 L 60.00 30.64 L 61.50 31.59 L 63.00 32.29 L 64.50 32.71 L 66.00 32.85 L 67.50 32.74 L 69.00 32.40 L 70.50 31.88 L 72.00 31.23 L 73.50 30.50 L 75.00 29.74 L 76.50 29.00 L 78.00 28.33 L 79.50 27.75 L 81.00 27.28 L 82.50 26.93 L 84.00 26.72 L 85.50 26.62 L 87.00 26.63 L 88.50 26.72 L 90.00 26.89 L 91.50 27.11 L 93.00 27.36 L 94.50 27.61 L 96.00 27.87" stroke="#CFEAD2" stroke-width="0.90" stroke-linecap="round" stroke-linejoin="round" fill="none" opacity="0.55"></path>
  <path d="M 0.00 28.76 L 1.50 28.85 L 3.00 29.00 L 4.50 29.21 L 6.00 29.49 L 7.50 29.84 L 9.00 30.25 L 10.50 30.71 L 12.00 31.19 L 13.50 31.66 L 15.00 32.10 L 16.50 32.45 L 18.00 32.69 L 19.50 32.75 L 21.00 32.62 L 22.50 32.24 L 24.00 31.61 L 25.50 30.71 L 27.00 29.56 L 28.50 28.18 L 30.00 26.62 L 31.50 24.94 L 33.00 23.23 L 34.50 21.57 L 36.00 20.06 L 37.50 18.79 L 39.00 17.84 L 40.50 17.29 L 42.00 17.19 L 43.50 17.55 L 45.00 18.38 L 46.50 19.64 L 48.00 21.26 L 49.50 23.18 L 51.00 25.28 L 52.50 27.45 L 54.00 29.58 L 55.50 31.55 L 57.00 33.27 L 58.50 34.66 L 60.00 35.65 L 61.50 36.22 L 63.00 36.37 L 64.50 36.11 L 66.00 35.51 L 67.50 34.60 L 69.00 33.49 L 70.50 32.24 L 72.00 30.94 L 73.50 29.67 L 75.00 28.49 L 76.50 27.46 L 78.00 26.62 L 79.50 25.99 L 81.00 25.57 L 82.50 25.35 L 84.00 25.33 L 85.50 25.46 L 87.00 25.72 L 88.50 26.07 L 90.00 26.48 L 91.50 26.92 L 93.00 27.35 L 94.50 27.76 L 96.00 28.13" stroke="#A7D9AC" stroke-width="1.15" stroke-linecap="round" stroke-linejoin="round" fill="none" opacity="0.68"></path>
  <path d="M 0.00 29.26 L 1.50 29.47 L 3.00 29.76 L 4.50 30.11 L 6.00 30.52 L 7.50 30.98 L 9.00 31.46 L 10.50 31.95 L 12.00 32.40 L 13.50 32.76 L 15.00 33.00 L 16.50 33.07 L 18.00 32.92 L 19.50 32.51 L 21.00 31.83 L 22.50 30.85 L 24.00 29.58 L 25.50 28.06 L 27.00 26.32 L 28.50 24.45 L 30.00 22.52 L 31.50 20.64 L 33.00 18.92 L 34.50 17.48 L 36.00 16.40 L 37.50 15.79 L 39.00 15.71 L 40.50 16.19 L 42.00 17.23 L 43.50 18.81 L 45.00 20.86 L 46.50 23.27 L 48.00 25.93 L 49.50 28.69 L 51.00 31.42 L 52.50 33.95 L 54.00 36.16 L 55.50 37.95 L 57.00 39.22 L 58.50 39.93 L 60.00 40.06 L 61.50 39.65 L 63.00 38.75 L 64.50 37.43 L 66.00 35.80 L 67.50 33.98 L 69.00 32.07 L 70.50 30.19 L 72.00 28.44 L 73.50 26.89 L 75.00 25.61 L 76.50 24.64 L 78.00 23.98 L 79.50 23.63 L 81.00 23.56 L 82.50 23.75 L 84.00 24.13 L 85.50 24.66 L 87.00 25.29 L 88.50 25.96 L 90.00 26.64 L 91.50 27.28 L 93.00 27.86 L 94.50 28.37 L 96.00 28.79" stroke="#A7D9AC" stroke-width="1.39" stroke-linecap="round" stroke-linejoin="round" fill="none" opacity="0.79"></path>
  <path d="M 0.00 29.96 L 1.50 30.28 L 3.00 30.65 L 4.50 31.07 L 6.00 31.52 L 7.50 31.96 L 9.00 32.37 L 10.50 32.71 L 12.00 32.93 L 13.50 32.98 L 15.00 32.83 L 16.50 32.42 L 18.00 31.74 L 19.50 30.76 L 21.00 29.49 L 22.50 27.95 L 24.00 26.18 L 25.50 24.27 L 27.00 22.28 L 28.50 20.34 L 30.00 18.56 L 31.50 17.05 L 33.00 15.94 L 34.50 15.32 L 36.00 15.27 L 37.50 15.83 L 39.00 17.03 L 40.50 18.83 L 42.00 21.17 L 43.50 23.94 L 45.00 27.01 L 46.50 30.21 L 48.00 33.38 L 49.50 36.35 L 51.00 38.95 L 52.50 41.05 L 54.00 42.54 L 55.50 43.35 L 57.00 43.46 L 58.50 42.89 L 60.00 41.70 L 61.50 39.97 L 63.00 37.84 L 64.50 35.45 L 66.00 32.93 L 67.50 30.43 L 69.00 28.09 L 70.50 26.00 L 72.00 24.26 L 73.50 22.93 L 75.00 22.01 L 76.50 21.52 L 78.00 21.42 L 79.50 21.67 L 81.00 22.21 L 82.50 22.95 L 84.00 23.84 L 85.50 24.80 L 87.00 25.77 L 88.50 26.70 L 90.00 27.55 L 91.50 28.29 L 93.00 28.90 L 94.50 29.38 L 96.00 29.74" stroke="#7BC684" stroke-width="1.58" stroke-linecap="round" stroke-linejoin="round" fill="none" opacity="0.89"></path>
  <path d="M 0.00 30.69 L 1.50 31.05 L 3.00 31.42 L 4.50 31.80 L 6.00 32.14 L 7.50 32.43 L 9.00 32.61 L 10.50 32.64 L 12.00 32.49 L 13.50 32.11 L 15.00 31.47 L 16.50 30.56 L 18.00 29.38 L 19.50 27.94 L 21.00 26.28 L 22.50 24.46 L 24.00 22.58 L 25.50 20.72 L 27.00 19.01 L 28.50 17.56 L 30.00 16.49 L 31.50 15.90 L 33.00 15.89 L 34.50 16.51 L 36.00 17.77 L 37.50 19.67 L 39.00 22.14 L 40.50 25.08 L 42.00 28.35 L 43.50 31.78 L 45.00 35.20 L 46.50 38.42 L 48.00 41.25 L 49.50 43.54 L 51.00 45.16 L 52.50 46.03 L 54.00 46.10 L 55.50 45.39 L 57.00 43.94 L 58.50 41.88 L 60.00 39.32 L 61.50 36.42 L 63.00 33.36 L 64.50 30.31 L 66.00 27.43 L 67.50 24.85 L 69.00 22.68 L 70.50 21.00 L 72.00 19.84 L 73.50 19.22 L 75.00 19.10 L 76.50 19.42 L 78.00 20.12 L 79.50 21.10 L 81.00 22.27 L 82.50 23.55 L 84.00 24.86 L 85.50 26.11 L 87.00 27.26 L 88.50 28.26 L 90.00 29.09 L 91.50 29.75 L 93.00 30.23 L 94.50 30.56 L 96.00 30.74" stroke="#5EC062" stroke-width="1.72" stroke-linecap="round" stroke-linejoin="round" fill="none" opacity="0.96"></path>
  <path d="M 0.00 31.25 L 1.50 31.55 L 3.00 31.82 L 4.50 32.04 L 6.00 32.18 L 7.50 32.19 L 9.00 32.05 L 10.50 31.72 L 12.00 31.17 L 13.50 30.38 L 15.00 29.35 L 16.50 28.09 L 18.00 26.63 L 19.50 25.03 L 21.00 23.35 L 22.50 21.70 L 24.00 20.16 L 25.50 18.86 L 27.00 17.90 L 28.50 17.39 L 30.00 17.42 L 31.50 18.04 L 33.00 19.29 L 34.50 21.15 L 36.00 23.58 L 37.50 26.49 L 39.00 29.74 L 40.50 33.17 L 42.00 36.61 L 43.50 39.85 L 45.00 42.73 L 46.50 45.06 L 48.00 46.71 L 49.50 47.57 L 51.00 47.59 L 52.50 46.77 L 54.00 45.16 L 55.50 42.85 L 57.00 39.99 L 58.50 36.74 L 60.00 33.29 L 61.50 29.83 L 63.00 26.53 L 64.50 23.56 L 66.00 21.05 L 67.50 19.09 L 69.00 17.74 L 70.50 17.00 L 72.00 16.87 L 73.50 17.27 L 75.00 18.12 L 76.50 19.34 L 78.00 20.79 L 79.50 22.39 L 81.00 24.02 L 82.50 25.60 L 84.00 27.06 L 85.50 28.33 L 87.00 29.40 L 88.50 30.24 L 90.00 30.85 L 91.50 31.25 L 93.00 31.47 L 94.50 31.53 L 96.00 31.48" stroke="#5EC062" stroke-width="1.79" stroke-linecap="round" stroke-linejoin="round" fill="none" opacity="1.00"></path>
  <path d="M 0.00 31.50 L 1.50 31.66 L 3.00 31.75 L 4.50 31.75 L 6.00 31.63 L 7.50 31.36 L 9.00 30.91 L 10.50 30.26 L 12.00 29.42 L 13.50 28.39 L 15.00 27.20 L 16.50 25.87 L 18.00 24.49 L 19.50 23.10 L 21.00 21.82 L 22.50 20.73 L 24.00 19.93 L 25.50 19.51 L 27.00 19.57 L 28.50 20.16 L 30.00 21.31 L 31.50 23.02 L 33.00 25.25 L 34.50 27.94 L 36.00 30.96 L 37.50 34.16 L 39.00 37.39 L 40.50 40.46 L 42.00 43.19 L 43.50 45.41 L 45.00 46.97 L 46.50 47.77 L 48.00 47.73 L 49.50 46.86 L 51.00 45.18 L 52.50 42.78 L 54.00 39.80 L 55.50 36.39 L 57.00 32.75 L 58.50 29.07 L 60.00 25.55 L 61.50 22.35 L 63.00 19.63 L 64.50 17.50 L 66.00 16.02 L 67.50 15.23 L 69.00 15.09 L 70.50 15.55 L 72.00 16.54 L 73.50 17.94 L 75.00 19.64 L 76.50 21.50 L 78.00 23.42 L 79.50 25.29 L 81.00 27.02 L 82.50 28.54 L 84.00 29.82 L 85.50 30.82 L 87.00 31.55 L 88.50 32.03 L 90.00 32.28 L 91.50 32.33 L 93.00 32.23 L 94.50 32.03 L 96.00 31.75" stroke="#4CAF50" stroke-width="1.79" stroke-linecap="round" stroke-linejoin="round" fill="none" opacity="1.00"></path>
  <path d="M 0.00 31.40 L 1.50 31.39 L 3.00 31.30 L 4.50 31.08 L 6.00 30.74 L 7.50 30.25 L 9.00 29.61 L 10.50 28.83 L 12.00 27.91 L 13.50 26.89 L 15.00 25.81 L 16.50 24.73 L 18.00 23.73 L 19.50 22.87 L 21.00 22.25 L 22.50 21.94 L 24.00 22.01 L 25.50 22.53 L 27.00 23.52 L 28.50 24.99 L 30.00 26.91 L 31.50 29.23 L 33.00 31.85 L 34.50 34.65 L 36.00 37.48 L 37.50 40.19 L 39.00 42.61 L 40.50 44.58 L 42.00 45.96 L 43.50 46.64 L 45.00 46.56 L 46.50 45.69 L 48.00 44.05 L 49.50 41.71 L 51.00 38.80 L 52.50 35.46 L 54.00 31.87 L 55.50 28.22 L 57.00 24.69 L 58.50 21.48 L 60.00 18.73 L 61.50 16.56 L 63.00 15.05 L 64.50 14.23 L 66.00 14.10 L 67.50 14.61 L 69.00 15.68 L 70.50 17.20 L 72.00 19.04 L 73.50 21.08 L 75.00 23.19 L 76.50 25.26 L 78.00 27.18 L 79.50 28.89 L 81.00 30.32 L 82.50 31.45 L 84.00 32.27 L 85.50 32.80 L 87.00 33.07 L 88.50 33.11 L 90.00 32.96 L 91.50 32.69 L 93.00 32.33 L 94.50 31.93 L 96.00 31.52" stroke="#4CAF50" stroke-width="1.72" stroke-linecap="round" stroke-linejoin="round" fill="none" opacity="0.96"></path>
  <path d="M 0.00 31.08 L 1.50 30.93 L 3.00 30.69 L 4.50 30.34 L 6.00 29.89 L 7.50 29.33 L 9.00 28.67 L 10.50 27.94 L 12.00 27.16 L 13.50 26.38 L 15.00 25.65 L 16.50 25.02 L 18.00 24.57 L 19.50 24.36 L 21.00 24.44 L 22.50 24.85 L 24.00 25.65 L 25.50 26.82 L 27.00 28.36 L 28.50 30.22 L 30.00 32.34 L 31.50 34.61 L 33.00 36.93 L 34.50 39.15 L 36.00 41.14 L 37.50 42.77 L 39.00 43.90 L 40.50 44.44 L 42.00 44.32 L 43.50 43.50 L 45.00 42.01 L 46.50 39.88 L 48.00 37.23 L 49.50 34.17 L 51.00 30.86 L 52.50 27.48 L 54.00 24.20 L 55.50 21.18 L 57.00 18.58 L 58.50 16.52 L 60.00 15.08 L 61.50 14.30 L 63.00 14.18 L 64.50 14.70 L 66.00 15.77 L 67.50 17.30 L 69.00 19.17 L 70.50 21.25 L 72.00 23.42 L 73.50 25.55 L 75.00 27.55 L 76.50 29.33 L 78.00 30.83 L 79.50 32.02 L 81.00 32.89 L 82.50 33.44 L 84.00 33.70 L 85.50 33.72 L 87.00 33.54 L 88.50 33.21 L 90.00 32.79 L 91.50 32.32 L 93.00 31.83 L 94.50 31.37 L 96.00 30.96" stroke="#3E9243" stroke-width="1.58" stroke-linecap="round" stroke-linejoin="round" fill="none" opacity="0.89"></path>
  <path d="M 0.00 30.73 L 1.50 30.50 L 3.00 30.21 L 4.50 29.84 L 6.00 29.40 L 7.50 28.92 L 9.00 28.40 L 10.50 27.88 L 12.00 27.38 L 13.50 26.96 L 15.00 26.66 L 16.50 26.53 L 18.00 26.60 L 19.50 26.91 L 21.00 27.50 L 22.50 28.36 L 24.00 29.50 L 25.50 30.88 L 27.00 32.45 L 28.50 34.16 L 30.00 35.90 L 31.50 37.58 L 33.00 39.09 L 34.50 40.32 L 36.00 41.16 L 37.50 41.55 L 39.00 41.40 L 40.50 40.69 L 42.00 39.42 L 43.50 37.63 L 45.00 35.38 L 46.50 32.79 L 48.00 29.96 L 49.50 27.06 L 51.00 24.22 L 52.50 21.60 L 54.00 19.32 L 55.50 17.50 L 57.00 16.23 L 58.50 15.53 L 60.00 15.44 L 61.50 15.91 L 63.00 16.90 L 64.50 18.33 L 66.00 20.08 L 67.50 22.04 L 69.00 24.10 L 70.50 26.13 L 72.00 28.06 L 73.50 29.78 L 75.00 31.24 L 76.50 32.40 L 78.00 33.24 L 79.50 33.78 L 81.00 34.03 L 82.50 34.03 L 84.00 33.83 L 85.50 33.47 L 87.00 33.02 L 88.50 32.50 L 90.00 31.98 L 91.50 31.49 L 93.00 31.04 L 94.50 30.66 L 96.00 30.35" stroke="#2E8B57" stroke-width="1.39" stroke-linecap="round" stroke-linejoin="round" fill="none" opacity="0.79"></path>
  <path d="M 0.00 30.53 L 1.50 30.31 L 3.00 30.05 L 4.50 29.76 L 6.00 29.44 L 7.50 29.13 L 9.00 28.83 L 10.50 28.57 L 12.00 28.39 L 13.50 28.31 L 15.00 28.36 L 16.50 28.57 L 18.00 28.96 L 19.50 29.54 L 21.00 30.30 L 22.50 31.22 L 24.00 32.29 L 25.50 33.44 L 27.00 34.62 L 28.50 35.77 L 30.00 36.80 L 31.50 37.64 L 33.00 38.20 L 34.50 38.43 L 36.00 38.28 L 37.50 37.71 L 39.00 36.72 L 40.50 35.33 L 42.00 33.59 L 43.50 31.57 L 45.00 29.37 L 46.50 27.09 L 48.00 24.85 L 49.50 22.76 L 51.00 20.94 L 52.50 19.47 L 54.00 18.43 L 55.50 17.86 L 57.00 17.78 L 58.50 18.17 L 60.00 19.00 L 61.50 20.20 L 63.00 21.69 L 64.50 23.37 L 66.00 25.14 L 67.50 26.92 L 69.00 28.60 L 70.50 30.12 L 72.00 31.41 L 73.50 32.44 L 75.00 33.20 L 76.50 33.68 L 78.00 33.90 L 79.50 33.89 L 81.00 33.69 L 82.50 33.35 L 84.00 32.91 L 85.50 32.42 L 87.00 31.91 L 88.50 31.43 L 90.00 30.99 L 91.50 30.62 L 93.00 30.33 L 94.50 30.12 L 96.00 29.98" stroke="#2E8B57" stroke-width="1.15" stroke-linecap="round" stroke-linejoin="round" fill="none" opacity="0.68"></path>
  <path d="M 0.00 30.59 L 1.50 30.43 L 3.00 30.26 L 4.50 30.09 L 6.00 29.93 L 7.50 29.79 L 9.00 29.70 L 10.50 29.65 L 12.00 29.69 L 13.50 29.81 L 15.00 30.03 L 16.50 30.37 L 18.00 30.81 L 19.50 31.35 L 21.00 31.97 L 22.50 32.65 L 24.00 33.35 L 25.50 34.02 L 27.00 34.63 L 28.50 35.12 L 30.00 35.43 L 31.50 35.53 L 33.00 35.39 L 34.50 34.97 L 36.00 34.28 L 37.50 33.32 L 39.00 32.12 L 40.50 30.72 L 42.00 29.19 L 43.50 27.60 L 45.00 26.02 L 46.50 24.55 L 48.00 23.24 L 49.50 22.19 L 51.00 21.43 L 52.50 21.00 L 54.00 20.93 L 55.50 21.21 L 57.00 21.81 L 58.50 22.69 L 60.00 23.79 L 61.50 25.05 L 63.00 26.40 L 64.50 27.75 L 66.00 29.05 L 67.50 30.23 L 69.00 31.24 L 70.50 32.06 L 72.00 32.66 L 73.50 33.05 L 75.00 33.23 L 76.50 33.22 L 78.00 33.06 L 79.50 32.78 L 81.00 32.42 L 82.50 32.01 L 84.00 31.59 L 85.50 31.19 L 87.00 30.83 L 88.50 30.52 L 90.00 30.28 L 91.50 30.11 L 93.00 30.01 L 94.50 29.96 L 96.00 29.97" stroke="#1F5E33" stroke-width="0.90" stroke-linecap="round" stroke-linejoin="round" fill="none" opacity="0.55"></path>
  </svg>